<?xml version="1.0" encoding="utf-8"?>
<!-- Generator: Adobe Illustrator 16.0.0, SVG Export Plug-In . SVG Version: 6.00 Build 0)  -->
<!DOCTYPE svg PUBLIC "-//W3C//DTD SVG 1.1//EN" "http://www.w3.org/Graphics/SVG/1.1/DTD/svg11.dtd">
<svg version="1.1" id="Layer_1" xmlns="http://www.w3.org/2000/svg" xmlns:xlink="http://www.w3.org/1999/xlink" x="0px" y="0px"
	 width="217px" height="229px" viewBox="0 0 217 229" enable-background="new 0 0 217 229" xml:space="preserve">
<g>
	<path fill-rule="evenodd" clip-rule="evenodd" d="M55.113,79.594h-7.16V18.738C47.953,12.809,43.145,8,37.215,8
		c-5.93,0-10.738,4.809-10.738,10.738v60.856H19.32C11.41,79.594,5,86.004,5,93.91v14.321c0,7.906,6.41,14.315,14.32,14.315h7.157
		v89.492c0,5.935,4.808,10.742,10.738,10.742c5.933,0,10.742-4.808,10.742-10.742v-89.492h7.156c7.91,0,14.321-6.409,14.321-14.315
		V93.91C69.434,86.004,63.023,79.594,55.113,79.594L55.113,79.594z M126.707,144.028h-7.16V18.738
		c0-5.929-4.809-10.738-10.738-10.738c-5.93,0-10.739,4.809-10.739,10.738v125.29h-7.16c-7.906,0-14.316,6.41-14.316,14.32v14.315
		c0,7.91,6.41,14.321,14.316,14.321h7.16v25.058c0,5.931,4.809,10.738,10.739,10.738c5.929,0,10.738-4.808,10.738-10.738v-25.058
		h7.16c7.906,0,14.32-6.411,14.32-14.321v-14.315C141.027,150.438,134.617,144.028,126.707,144.028L126.707,144.028z
		 M198.301,29.477h-7.16V18.738c0-5.929-4.809-10.738-10.738-10.738s-10.738,4.809-10.738,10.738v10.739h-7.16
		c-7.906,0-14.316,6.414-14.316,14.32v14.316c0,7.911,6.41,14.321,14.316,14.321h7.16v139.605c0,5.935,4.809,10.742,10.738,10.742
		s10.738-4.808,10.738-10.742V72.434h7.16c7.91,0,14.32-6.41,14.32-14.321V43.797C212.621,35.891,206.211,29.477,198.301,29.477
		L198.301,29.477z M198.301,29.477"/>
</g>
</svg>
